<svg xmlns="http://www.w3.org/2000/svg" width="466.136" height="68.973"><path fill="#5b6770" d="M373.498 13.382h4.2l-6.167 29.001h39.806l1.845-8.694h-22.991l1.617-7.607h21.334l1.848-8.694h-21.333l1.618-7.606h22.762l1.846-8.69h-43.757zm48.872-12.29-1.853 8.692h13.554l-6.926 32.599h17.386l6.926-32.599h12.829l1.85-8.692zm-64.128-.005-5.886 27.687h-.173l-8.015-27.687h-29.766l-2.63 12.295h4.323l-5.378 25.296c.821-.011 1.64-.024 2.459-.024 4.186 0 8.364.159 12.547.484l5.56-26.152h.114l8.048 27.806c7.948 1.289 15.976 3.16 24.188 5.645.038.012.085.029.13.042l9.585-45.392z"/><path d="M143.035 21.736c-1.8 8.463-6.802 12.35-12.522 12.35s-9.066-3.887-7.267-12.35c1.799-8.464 6.801-12.355 12.522-12.355 5.715 0 9.065 3.891 7.267 12.355M137.76.002c-10.638 0-16.104 1.774-20.646 4.577-5.464 3.373-9.897 9.15-11.6 17.157-2.624 12.35 2.817 21.731 23.003 21.731 10.64 0 18.394-2.857 23.768-7.148 4.126-3.262 7.129-8.237 8.477-14.583C163.39 9.381 157.947.002 137.761.002m124.926 1.09H218.92l-1.853 8.692h13.551l-6.922 32.6h17.385l6.927-32.6h12.827zM87.948 14.985c-.862 4.059-3.386 5.434-9.563 5.434h-3.547l2.263-10.638h5.262c4.972 0 6.313 1.774 5.585 5.204m3.07-13.896H57.151L54.52 13.381h4.43l-6.167 29.003H70.17l2.82-13.272h13.612c8.693 0 16.15-3.6 18.289-13.67C107.18 4.692 100.968 1.09 91.017 1.09m107.495 13.267c-.826 3.89-3.93 5.033-7.646 5.033h-6.634l2.115-9.953h6.349c4.231 0 6.595 1.257 5.816 4.92m1.621-13.266h-33.797l-2.633 12.29h4.418l-6.165 29.003h17.387l3.185-14.989h4.07c2.908 0 4.395 1.172 5.195 3.722l3.803 11.267h17.575l-7.878-18.815c5.343-.914 9.192-5.61 10.064-11.1 1.389-8.758-3.96-11.378-15.224-11.378M32.007.002C15.48.002 6.325 4.062 4.403 13.1c-.498 2.343-.433 5.261 1.384 7.206 4.513 4.862 23.83 6.807 25.616 9.436.348.515.5 1.143.342 1.889-.704 3.315-4.777 4.175-8.38 4.175-2.285 0-3.71-.574-4.622-1.66-.857-1.088-.96-2.745-.53-5.033H.483c-1.286 7.665-1.62 14.356 20.797 14.356 18.815 0 27.14-5.262 28.876-13.44.854-4.003-.331-6.234-1.629-7.663-4.445-4.92-23.155-6.749-25.296-9.324-.418-.455-.478-1.257-.344-1.886.45-2.116 2.686-3.49 6.346-3.49 2.175 0 3.83.288 4.848 1.143 1.075.858 1.516 2.288 1.144 4.575h17.043C53.851 4.865 49.565.002 32.008.002m277.608 13.382C311.2 4.863 306.915 0 289.35 0c-16.532 0-25.692 4.061-27.617 13.099-.497 2.346-.43 5.264 1.387 7.21 4.516 4.863 23.842 6.808 25.627 9.44.348.514.499 1.142.341 1.889-.705 3.316-4.778 4.177-8.38 4.177-2.29 0-3.713-.575-4.627-1.661-.855-1.089-.961-2.747-.531-5.034h-17.737c-1.196 7.129-1.558 13.413 16.433 14.26 8.89-2.149 17.676-3.554 26.455-4.236 3.867-2.291 6.016-5.399 6.806-9.11.85-4.003-.334-6.236-1.63-7.664-4.449-4.921-23.167-6.752-25.307-9.329-.418-.455-.478-1.256-.344-1.886.45-2.117 2.687-3.49 6.35-3.49 2.175 0 3.827.288 4.85 1.143 1.075.858 1.515 2.288 1.141 4.577z"/><path fill="#00558c" d="M323.798 68.448c9.663-9.818 32.927-.94 35.326-1.18 1.225-.123 1.785-1.868-.648-2.84-23.086-9.2-57.168-11.555-75.89-8.173-2.063.57-2.776 2.369.475 2.76 3.264.4 11.6 1.03 23.505 3.838 6.604 1.558 11.478 3.675 15.643 5.97.551.277 1.041.18 1.589-.375"/><path fill="#c8102e" d="m361.107 59.698 1.956-9.308c-36.273-10.979-70.988-10.406-107.597 2.618-1.853.646-2.444 3.332 1.379 2.727 5.637-.875 28.377-3.927 48.646-4.035 16.272-.085 35.97 3.348 52.457 8.808 1.912.547 2.845.252 3.16-.81"/></svg>
